<?xml version="1.0" encoding="UTF-8"?>
<svg xmlns="http://www.w3.org/2000/svg" xmlns:xlink="http://www.w3.org/1999/xlink" width="382pt" height="52pt" viewBox="0 0 382 52" version="1.1">
<g id="surface1">
<path style="fill:none;stroke-width:3;stroke-linecap:butt;stroke-linejoin:miter;stroke:rgb(0%,0%,0%);stroke-opacity:1;stroke-miterlimit:10;" d="M 52.5 37.5 C 103.207031 29.839844 163.914062 41.996094 187.5 37.5 "/>
<path style=" stroke:none;fill-rule:nonzero;fill:rgb(0%,0%,0%);fill-opacity:1;" d="M 57.074219 37.324219 C 57.074219 43.992188 47.074219 43.992188 47.074219 37.324219 C 47.074219 30.65625 57.074219 30.65625 57.074219 37.324219 Z M 57.074219 37.324219 "/>
<path style=" stroke:none;fill-rule:nonzero;fill:rgb(0%,0%,0%);fill-opacity:1;" d="M 57.765625 37.703125 C 57.765625 44.371094 47.765625 44.371094 47.765625 37.703125 C 47.765625 31.035156 57.765625 31.035156 57.765625 37.703125 Z M 57.765625 37.703125 "/>
<path style=" stroke:none;fill-rule:nonzero;fill:rgb(0%,0%,0%);fill-opacity:1;" d="M 57.242188 37.160156 C 57.242188 43.828125 47.242188 43.828125 47.242188 37.160156 C 47.242188 30.496094 57.242188 30.496094 57.242188 37.160156 Z M 57.242188 37.160156 "/>
<path style="fill:none;stroke-width:3;stroke-linecap:butt;stroke-linejoin:miter;stroke:rgb(0%,0%,0%);stroke-opacity:1;stroke-miterlimit:10;" d="M 262.5 37.5 C 314.953125 32.152344 303.753906 43.917969 367.5 37.5 "/>
<path style="fill:none;stroke-width:3;stroke-linecap:butt;stroke-linejoin:miter;stroke:rgb(0%,0%,0%);stroke-opacity:1;stroke-miterlimit:10;" d="M 349.949219 27.910156 C 361.441406 31.085938 357.007812 33.273438 367.5 37.5 "/>
<path style="fill:none;stroke-width:3;stroke-linecap:butt;stroke-linejoin:miter;stroke:rgb(0%,0%,0%);stroke-opacity:1;stroke-miterlimit:10;" d="M 349.949219 47.089844 C 353.867188 44.230469 354.855469 45.519531 367.5 37.5 "/>
<path style=" stroke:none;fill-rule:nonzero;fill:rgb(0%,0%,0%);fill-opacity:1;" d="M 202.453125 34.917969 C 202.453125 34.867188 202.460938 34.824219 202.46875 34.792969 C 202.46875 34.761719 202.480469 34.722656 202.5 34.667969 C 202.570312 34.574219 202.675781 34.460938 202.8125 34.324219 C 202.957031 34.179688 203.046875 34.105469 203.078125 34.105469 L 208.375 34.105469 C 208.375 33.917969 208.347656 33.617188 208.296875 33.199219 C 208.242188 32.773438 208.195312 32.304688 208.15625 31.792969 C 208.113281 31.285156 208.097656 30.753906 208.109375 30.199219 C 208.128906 29.636719 208.203125 29.132812 208.328125 28.683594 C 208.460938 28.238281 208.675781 27.871094 208.96875 27.589844 C 209.257812 27.300781 209.671875 27.152344 210.203125 27.152344 C 210.203125 28.925781 210.320312 30.347656 210.5625 31.417969 C 210.8125 32.492188 211.140625 33.320312 211.546875 33.902344 C 211.960938 34.476562 212.4375 34.851562 212.96875 35.027344 C 213.5 35.207031 214.039062 35.285156 214.59375 35.261719 C 215.144531 35.230469 215.679688 35.148438 216.203125 35.011719 C 216.734375 34.867188 217.203125 34.769531 217.609375 34.714844 C 218.023438 34.664062 218.359375 34.707031 218.609375 34.839844 C 218.859375 34.964844 218.984375 35.273438 218.984375 35.761719 C 218.984375 36.136719 218.898438 36.402344 218.734375 36.558594 C 218.566406 36.714844 218.242188 36.839844 217.765625 36.933594 C 217.628906 36.945312 217.394531 36.976562 217.0625 37.027344 C 216.738281 37.070312 216.375 37.113281 215.96875 37.152344 C 215.570312 37.183594 215.144531 37.222656 214.6875 37.261719 C 214.226562 37.304688 213.796875 37.347656 213.390625 37.386719 C 212.984375 37.417969 212.613281 37.441406 212.28125 37.449219 C 211.945312 37.449219 211.703125 37.449219 211.546875 37.449219 C 211.546875 37.542969 211.535156 37.695312 211.515625 37.902344 C 211.492188 38.113281 211.484375 38.253906 211.484375 38.324219 C 211.484375 39.097656 211.609375 39.847656 211.859375 40.574219 C 212.109375 41.304688 212.375 42.035156 212.65625 42.761719 C 212.945312 43.480469 213.21875 44.199219 213.46875 44.917969 C 213.71875 45.636719 213.84375 46.382812 213.84375 47.152344 C 213.84375 47.300781 213.828125 47.449219 213.796875 47.605469 C 213.773438 47.753906 213.722656 47.882812 213.640625 47.996094 C 213.554688 48.113281 213.441406 48.195312 213.296875 48.246094 C 213.148438 48.308594 212.941406 48.296875 212.671875 48.214844 C 212.003906 48.039062 211.507812 47.664062 211.1875 47.089844 C 210.863281 46.507812 210.617188 45.816406 210.453125 45.011719 C 210.296875 44.210938 210.191406 43.363281 210.140625 42.464844 C 210.085938 41.570312 210.003906 40.730469 209.890625 39.949219 C 209.773438 39.167969 209.59375 38.503906 209.34375 37.949219 C 209.101562 37.398438 208.710938 37.058594 208.171875 36.933594 L 203.078125 35.761719 C 203.003906 35.761719 202.894531 35.691406 202.75 35.542969 C 202.613281 35.398438 202.53125 35.289062 202.5 35.214844 C 202.480469 35.183594 202.46875 35.144531 202.46875 35.089844 C 202.460938 35.050781 202.453125 34.992188 202.453125 34.917969 Z M 219.984375 40.886719 C 219.984375 39.941406 220.097656 38.992188 220.328125 38.042969 C 220.554688 37.085938 220.921875 36.230469 221.421875 35.480469 C 221.921875 34.722656 222.566406 34.105469 223.359375 33.636719 C 224.160156 33.160156 225.132812 32.917969 226.28125 32.917969 C 226.9375 32.917969 227.507812 33.039062 228 33.277344 C 228.488281 33.519531 228.898438 33.832031 229.234375 34.214844 C 229.566406 34.601562 229.816406 35.054688 229.984375 35.574219 C 230.148438 36.097656 230.234375 36.636719 230.234375 37.199219 C 230.234375 38.097656 230.023438 38.964844 229.609375 39.808594 C 229.203125 40.652344 228.648438 41.398438 227.953125 42.042969 C 227.265625 42.679688 226.46875 43.160156 225.5625 43.480469 C 224.664062 43.804688 223.753906 43.878906 222.828125 43.699219 C 222.847656 44.210938 223.019531 44.621094 223.34375 44.933594 C 223.664062 45.238281 224.054688 45.472656 224.515625 45.636719 C 224.972656 45.792969 225.445312 45.894531 225.9375 45.933594 C 226.425781 45.976562 226.867188 45.996094 227.265625 45.996094 C 227.660156 45.996094 228.035156 45.964844 228.390625 45.902344 C 228.742188 45.832031 229.09375 45.753906 229.4375 45.667969 C 229.789062 45.574219 230.148438 45.492188 230.515625 45.417969 C 230.878906 45.347656 231.257812 45.308594 231.65625 45.308594 C 231.820312 45.308594 231.984375 45.320312 232.140625 45.339844 C 232.296875 45.363281 232.441406 45.402344 232.578125 45.464844 C 232.722656 45.527344 232.835938 45.628906 232.921875 45.761719 C 233.015625 45.886719 233.0625 46.042969 233.0625 46.230469 C 233.0625 46.566406 232.9375 46.847656 232.6875 47.074219 C 232.445312 47.292969 232.132812 47.480469 231.75 47.636719 C 231.375 47.792969 230.957031 47.914062 230.5 47.996094 C 230.039062 48.070312 229.597656 48.132812 229.171875 48.183594 C 228.742188 48.222656 228.347656 48.246094 227.984375 48.246094 C 227.617188 48.253906 227.347656 48.261719 227.171875 48.261719 C 226.046875 48.261719 225.035156 48.085938 224.140625 47.730469 C 223.242188 47.367188 222.488281 46.867188 221.875 46.230469 C 221.257812 45.585938 220.789062 44.808594 220.46875 43.902344 C 220.144531 42.996094 219.984375 41.992188 219.984375 40.886719 Z M 222.78125 39.167969 C 222.78125 39.785156 222.863281 40.230469 223.03125 40.511719 C 223.195312 40.792969 223.601562 40.933594 224.25 40.933594 C 224.707031 40.933594 225.15625 40.851562 225.59375 40.683594 C 226.03125 40.519531 226.429688 40.289062 226.796875 39.996094 C 227.160156 39.695312 227.445312 39.339844 227.65625 38.933594 C 227.863281 38.527344 227.96875 38.089844 227.96875 37.621094 C 227.96875 37.351562 227.945312 37.074219 227.90625 36.792969 C 227.863281 36.511719 227.769531 36.257812 227.625 36.027344 C 227.488281 35.789062 227.304688 35.597656 227.078125 35.449219 C 226.859375 35.292969 226.578125 35.214844 226.234375 35.214844 C 225.703125 35.214844 225.21875 35.335938 224.78125 35.574219 C 224.351562 35.816406 223.988281 36.121094 223.6875 36.496094 C 223.394531 36.871094 223.171875 37.292969 223.015625 37.761719 C 222.859375 38.230469 222.78125 38.699219 222.78125 39.167969 Z M 239.761719 47.027344 C 240.042969 46.832031 240.378906 46.582031 240.777344 46.277344 C 241.171875 45.964844 241.566406 45.636719 241.964844 45.292969 C 242.371094 44.941406 242.75 44.570312 243.105469 44.183594 C 243.457031 43.800781 243.734375 43.425781 243.933594 43.058594 C 244.140625 42.695312 244.246094 42.355469 244.246094 42.042969 C 244.246094 41.730469 244.082031 41.464844 243.761719 41.246094 C 243.199219 41.246094 242.582031 41.273438 241.917969 41.324219 C 241.25 41.367188 240.582031 41.382812 239.917969 41.371094 C 239.25 41.363281 238.605469 41.304688 237.980469 41.199219 C 237.355469 41.097656 236.792969 40.902344 236.292969 40.621094 C 235.800781 40.339844 235.410156 39.941406 235.121094 39.417969 C 234.839844 38.898438 234.699219 38.238281 234.699219 37.433594 C 234.699219 36.488281 234.875 35.632812 235.230469 34.871094 C 235.59375 34.101562 236.074219 33.425781 236.667969 32.839844 C 237.269531 32.246094 237.941406 31.726562 238.683594 31.277344 C 239.433594 30.832031 240.1875 30.445312 240.949219 30.121094 C 241.40625 30.246094 241.828125 30.472656 242.214844 30.792969 C 242.597656 31.105469 242.933594 31.457031 243.214844 31.839844 C 243.089844 32.226562 242.84375 32.527344 242.480469 32.746094 C 242.125 32.957031 241.714844 33.136719 241.246094 33.292969 C 240.777344 33.449219 240.285156 33.617188 239.777344 33.792969 C 239.277344 33.972656 238.816406 34.207031 238.402344 34.496094 C 237.984375 34.777344 237.636719 35.152344 237.355469 35.621094 C 237.074219 36.089844 236.933594 36.699219 236.933594 37.449219 C 236.933594 38.011719 237.074219 38.429688 237.355469 38.699219 C 237.636719 38.960938 238.003906 39.144531 238.464844 39.246094 C 238.921875 39.339844 239.4375 39.378906 240.011719 39.355469 C 240.59375 39.324219 241.1875 39.285156 241.792969 39.230469 C 242.40625 39.167969 243 39.136719 243.574219 39.136719 C 244.15625 39.128906 244.675781 39.195312 245.136719 39.339844 C 245.59375 39.488281 245.957031 39.730469 246.230469 40.074219 C 246.5 40.410156 246.636719 40.898438 246.636719 41.542969 C 246.636719 41.824219 246.542969 42.183594 246.355469 42.621094 C 246.175781 43.058594 245.933594 43.535156 245.621094 44.042969 C 245.316406 44.542969 244.957031 45.039062 244.542969 45.527344 C 244.125 46.019531 243.691406 46.460938 243.246094 46.855469 C 242.796875 47.253906 242.347656 47.582031 241.902344 47.839844 C 241.453125 48.089844 241.035156 48.214844 240.652344 48.214844 C 240.285156 48.214844 240.046875 48.085938 239.933594 47.824219 C 239.816406 47.554688 239.761719 47.289062 239.761719 47.027344 Z M 247.117188 34.917969 C 247.117188 34.867188 247.125 34.824219 247.132812 34.792969 C 247.132812 34.761719 247.144531 34.722656 247.164062 34.667969 C 247.234375 34.574219 247.339844 34.460938 247.476562 34.324219 C 247.621094 34.179688 247.710938 34.105469 247.742188 34.105469 L 253.039062 34.105469 C 253.039062 33.917969 253.011719 33.617188 252.960938 33.199219 C 252.90625 32.773438 252.859375 32.304688 252.820312 31.792969 C 252.777344 31.285156 252.761719 30.753906 252.773438 30.199219 C 252.792969 29.636719 252.867188 29.132812 252.992188 28.683594 C 253.125 28.238281 253.339844 27.871094 253.632812 27.589844 C 253.921875 27.300781 254.335938 27.152344 254.867188 27.152344 C 254.867188 28.925781 254.984375 30.347656 255.226562 31.417969 C 255.476562 32.492188 255.804688 33.320312 256.210938 33.902344 C 256.625 34.476562 257.101562 34.851562 257.632812 35.027344 C 258.164062 35.207031 258.703125 35.285156 259.257812 35.261719 C 259.808594 35.230469 260.34375 35.148438 260.867188 35.011719 C 261.398438 34.867188 261.867188 34.769531 262.273438 34.714844 C 262.6875 34.664062 263.023438 34.707031 263.273438 34.839844 C 263.523438 34.964844 263.648438 35.273438 263.648438 35.761719 C 263.648438 36.136719 263.5625 36.402344 263.398438 36.558594 C 263.230469 36.714844 262.90625 36.839844 262.429688 36.933594 C 262.292969 36.945312 262.058594 36.976562 261.726562 37.027344 C 261.402344 37.070312 261.039062 37.113281 260.632812 37.152344 C 260.234375 37.183594 259.808594 37.222656 259.351562 37.261719 C 258.890625 37.304688 258.460938 37.347656 258.054688 37.386719 C 257.648438 37.417969 257.277344 37.441406 256.945312 37.449219 C 256.609375 37.449219 256.367188 37.449219 256.210938 37.449219 C 256.210938 37.542969 256.199219 37.695312 256.179688 37.902344 C 256.15625 38.113281 256.148438 38.253906 256.148438 38.324219 C 256.148438 39.097656 256.273438 39.847656 256.523438 40.574219 C 256.773438 41.304688 257.039062 42.035156 257.320312 42.761719 C 257.609375 43.480469 257.882812 44.199219 258.132812 44.917969 C 258.382812 45.636719 258.507812 46.382812 258.507812 47.152344 C 258.507812 47.300781 258.492188 47.449219 258.460938 47.605469 C 258.4375 47.753906 258.386719 47.882812 258.304688 47.996094 C 258.21875 48.113281 258.105469 48.195312 257.960938 48.246094 C 257.8125 48.308594 257.605469 48.296875 257.335938 48.214844 C 256.667969 48.039062 256.171875 47.664062 255.851562 47.089844 C 255.527344 46.507812 255.28125 45.816406 255.117188 45.011719 C 254.960938 44.210938 254.855469 43.363281 254.804688 42.464844 C 254.75 41.570312 254.667969 40.730469 254.554688 39.949219 C 254.4375 39.167969 254.257812 38.503906 254.007812 37.949219 C 253.765625 37.398438 253.375 37.058594 252.835938 36.933594 L 247.742188 35.761719 C 247.667969 35.761719 247.558594 35.691406 247.414062 35.542969 C 247.277344 35.398438 247.195312 35.289062 247.164062 35.214844 C 247.144531 35.183594 247.132812 35.144531 247.132812 35.089844 C 247.125 35.050781 247.117188 34.992188 247.117188 34.917969 Z M 202.5 10.742188 "/>
</g>
</svg>

